<svg xmlns="http://www.w3.org/2000/svg" width="900" height="1200" viewBox="0 0 900 1200">
  <!-- White = visible mask area -->
  <rect width="900" height="1200" fill="black" />
  <g>
    <path d="M460 240c95 0 165 73 165 165 0 66-25 116-66 146 55 33 91 92 91 168v187H270V719c0-76 36-135 91-168-41-30-66-80-66-146 0-92 70-165 165-165z" fill="white"/>
    <path d="M460 270c77 0 133 58 133 135 0 55-20 96-52 120-6 4-10 10-10 18 0 9 5 17 13 21 44 21 73 69 73 135v157H303V699c0-66 29-114 73-135 8-4 13-12 13-21 0-8-4-14-10-18-32-24-52-65-52-120 0-77 56-135 133-135z" fill="white"/>
  </g>
</svg>

